<svg width="31" height="30" viewBox="0 0 31 30" fill="none" xmlns="http://www.w3.org/2000/svg">
    <path d="M13.055 1.29091C8.31473 1.63076 5.637 2.65029 5.43192 4.17373C5.40262 4.39053 7.68192 25.7479 7.78739 26.2811C8.02176 27.4354 9.75614 28.2558 12.7444 28.6366C13.7288 28.7597 16.8811 28.7831 17.8597 28.6659C20.7483 28.3319 22.5003 27.6112 22.9573 26.5741C23.0745 26.3163 23.2386 24.9218 24.2757 15.3358C25.0315 8.3456 25.4475 4.30263 25.4241 4.15029C25.1956 2.72646 22.7932 1.74209 18.5628 1.34951C17.6604 1.26162 13.9749 1.22646 13.055 1.29091ZM18.844 2.66201C20.9534 2.90224 22.4417 3.24795 23.4026 3.72841C24.1819 4.11513 24.3225 4.35537 23.9534 4.68349C23.4378 5.13466 22.1956 5.5624 20.5257 5.85537C17.5257 6.38857 12.7503 6.35341 9.89676 5.77334C8.05106 5.4042 6.69755 4.80654 6.69755 4.36709C6.69755 3.99209 7.84598 3.44131 9.39286 3.08388C10.4065 2.84951 11.6663 2.67959 13.3479 2.55654C14.1214 2.49795 18.0823 2.57412 18.844 2.66201ZM8.34989 6.70498C9.38114 7.00381 10.764 7.23232 12.4983 7.39639C13.5589 7.49599 17.2561 7.49599 18.3577 7.39639C20.678 7.18545 22.5061 6.81045 23.6604 6.29482L23.9944 6.14834L23.9593 6.37099C23.9417 6.49404 23.8597 7.22646 23.7776 7.9999C23.6956 8.77334 23.6136 9.51162 23.596 9.64638L21.6792 26.2811L20.4292 26.8772C19.1792 27.5022 19.1792 27.5022 15.4292 27.5022C12.3042 27.4732 12.9292 27.5022 11.0542 26.8772L9.1792 26.2811L7.26005 9.64638C7.24247 9.51162 7.16044 8.77334 7.0784 7.9999C6.99637 7.22646 6.91434 6.4999 6.89676 6.38271L6.86747 6.16592L7.3538 6.36513C7.62333 6.4706 8.06864 6.62295 8.34989 6.70498Z" fill="black"/>
</svg>
