<svg width="124" height="21" viewBox="0 0 124 21" fill="none" xmlns="http://www.w3.org/2000/svg">
<path d="M9.48888 1.33939C9.53045 1.23901 9.60125 1.15314 9.69226 1.09271C9.78328 1.03227 9.8904 1 10 1C10.1096 1 10.2167 1.03227 10.3077 1.09271C10.3987 1.15314 10.4695 1.23901 10.5111 1.33939L12.5998 6.31218C12.6389 6.40523 12.7032 6.4858 12.7856 6.54502C12.8679 6.60424 12.9652 6.63983 13.0667 6.64785L18.4904 7.0779C18.9809 7.11682 19.1795 7.72297 18.806 8.03918L14.6738 11.5438C14.5966 11.6091 14.539 11.6943 14.5075 11.7899C14.4759 11.8855 14.4716 11.9878 14.4949 12.0857L15.7579 17.3251C15.7833 17.4302 15.7767 17.5404 15.7388 17.6418C15.701 17.7432 15.6336 17.8312 15.5453 17.8947C15.4569 17.9582 15.3515 17.9943 15.2424 17.9986C15.1333 18.0029 15.0254 17.975 14.9323 17.9186L10.288 15.1116C10.2013 15.0592 10.1016 15.0314 10 15.0314C9.89837 15.0314 9.79872 15.0592 9.712 15.1116L5.06772 17.9196C4.97459 17.976 4.86667 18.0038 4.75757 17.9996C4.64847 17.9953 4.54309 17.9592 4.45474 17.8956C4.36639 17.8321 4.29904 17.7441 4.26119 17.6428C4.22334 17.5414 4.21668 17.4312 4.24207 17.3261L5.50512 12.0857C5.52854 11.9878 5.52423 11.8855 5.49267 11.7898C5.46111 11.6942 5.40352 11.6091 5.32623 11.5438L1.19404 8.03918C1.11083 7.96897 1.05054 7.87589 1.02081 7.77173C0.991082 7.66757 0.993247 7.55703 1.02703 7.45409C1.06082 7.35115 1.12471 7.26046 1.2106 7.19349C1.2965 7.12652 1.40055 7.08629 1.50956 7.0779L6.93329 6.64785C7.03478 6.63983 7.13206 6.60424 7.21444 6.54502C7.29681 6.4858 7.36108 6.40523 7.40018 6.31218L9.48888 1.33939Z" stroke="black" stroke-width="1.5" stroke-linecap="round" stroke-linejoin="round"/>
<path d="M29.4141 16V4.72656H31.4375L35.0234 13.7109H35.1562L38.7422 4.72656H40.7656V16H39.1641V7.73438H38.2969L40.125 5.03906L35.7344 16H34.4375L30.0547 5.03906L31.875 7.73438H31.0156V16H29.4141ZM46.9531 16.1641C46.125 16.1641 45.4141 15.987 44.8203 15.6328C44.2266 15.2734 43.7682 14.7656 43.4453 14.1094C43.1276 13.4531 42.9688 12.6771 42.9688 11.7812V11.7734C42.9688 10.888 43.1276 10.1146 43.4453 9.45312C43.7682 8.79167 44.2214 8.27604 44.8047 7.90625C45.3932 7.53646 46.0807 7.35156 46.8672 7.35156C47.6589 7.35156 48.3385 7.52865 48.9062 7.88281C49.4792 8.23698 49.9193 8.73438 50.2266 9.375C50.5339 10.0104 50.6875 10.7552 50.6875 11.6094V12.2031H43.8281V10.9922H49.8438L49.0312 12.1172V11.4375C49.0312 10.8333 48.9375 10.3333 48.75 9.9375C48.5677 9.53646 48.3151 9.23698 47.9922 9.03906C47.6693 8.84115 47.2969 8.74219 46.875 8.74219C46.4531 8.74219 46.0755 8.84635 45.7422 9.05469C45.4141 9.25781 45.1536 9.5599 44.9609 9.96094C44.7734 10.362 44.6797 10.8542 44.6797 11.4375V12.1172C44.6797 12.6745 44.7734 13.151 44.9609 13.5469C45.1484 13.9427 45.4141 14.2448 45.7578 14.4531C46.1068 14.6615 46.5182 14.7656 46.9922 14.7656C47.3568 14.7656 47.6693 14.7161 47.9297 14.6172C48.1953 14.513 48.4115 14.3854 48.5781 14.2344C48.75 14.0833 48.8672 13.9349 48.9297 13.7891L48.9609 13.7266H50.6016L50.5859 13.7969C50.513 14.0781 50.3854 14.3594 50.2031 14.6406C50.0208 14.9167 49.7786 15.1693 49.4766 15.3984C49.1797 15.6276 48.8203 15.8125 48.3984 15.9531C47.9818 16.0938 47.5 16.1641 46.9531 16.1641ZM55.0312 16.1406C54.4948 16.1406 54.013 16.0391 53.5859 15.8359C53.1641 15.6276 52.8307 15.3333 52.5859 14.9531C52.3411 14.5729 52.2188 14.1276 52.2188 13.6172V13.6016C52.2188 13.0911 52.3411 12.6562 52.5859 12.2969C52.8359 11.9375 53.1953 11.6562 53.6641 11.4531C54.138 11.2448 54.7109 11.1198 55.3828 11.0781L58.5156 10.8906V12.0859L55.6172 12.2734C55.0339 12.3099 54.6042 12.4349 54.3281 12.6484C54.0521 12.8568 53.9141 13.151 53.9141 13.5312V13.5469C53.9141 13.9323 54.0625 14.237 54.3594 14.4609C54.6562 14.6797 55.0312 14.7891 55.4844 14.7891C55.9062 14.7891 56.2812 14.7057 56.6094 14.5391C56.9427 14.3672 57.2031 14.138 57.3906 13.8516C57.5781 13.5599 57.6719 13.2318 57.6719 12.8672V10.1953C57.6719 9.72656 57.526 9.36979 57.2344 9.125C56.9479 8.875 56.5208 8.75 55.9531 8.75C55.4792 8.75 55.0911 8.83333 54.7891 9C54.4922 9.16667 54.2943 9.40104 54.1953 9.70312L54.1797 9.72656H52.5469L52.5547 9.67188C52.6224 9.20312 52.8073 8.79688 53.1094 8.45312C53.4167 8.10417 53.8177 7.83333 54.3125 7.64062C54.8125 7.44792 55.3828 7.35156 56.0234 7.35156C56.737 7.35156 57.3411 7.46615 57.8359 7.69531C58.3359 7.91927 58.7135 8.24479 58.9688 8.67188C59.2292 9.09375 59.3594 9.60156 59.3594 10.1953V16H57.6719V14.7969H57.5469C57.3802 15.0833 57.1719 15.3281 56.9219 15.5312C56.6719 15.7292 56.388 15.8802 56.0703 15.9844C55.7526 16.0885 55.4062 16.1406 55.0312 16.1406ZM61.8281 16V4.1875H63.5234V16H61.8281ZM71.0078 16V8.85156H69.6094V7.51562H71.0078V6.625C71.0078 6.05729 71.1016 5.58854 71.2891 5.21875C71.4818 4.84375 71.7734 4.5651 72.1641 4.38281C72.5547 4.20052 73.0469 4.10938 73.6406 4.10938C73.8281 4.10938 74.0026 4.11719 74.1641 4.13281C74.3307 4.14323 74.4896 4.16146 74.6406 4.1875V5.4375C74.5625 5.42188 74.4661 5.41146 74.3516 5.40625C74.2422 5.39583 74.1224 5.39062 73.9922 5.39062C73.5234 5.39062 73.1875 5.5026 72.9844 5.72656C72.7865 5.95052 72.6875 6.27604 72.6875 6.70312V7.51562H74.5625V8.85156H72.7031V16H71.0078ZM79.7344 16.1641C78.9062 16.1641 78.1901 15.987 77.5859 15.6328C76.987 15.2786 76.526 14.7734 76.2031 14.1172C75.8802 13.4557 75.7188 12.6719 75.7188 11.7656V11.75C75.7188 10.8385 75.8802 10.0547 76.2031 9.39844C76.5312 8.74219 76.9948 8.23698 77.5938 7.88281C78.1979 7.52865 78.9115 7.35156 79.7344 7.35156C80.5625 7.35156 81.276 7.52865 81.875 7.88281C82.474 8.23177 82.9349 8.73698 83.2578 9.39844C83.5859 10.0547 83.75 10.8385 83.75 11.75V11.7656C83.75 12.6719 83.5859 13.4557 83.2578 14.1172C82.9349 14.7734 82.474 15.2786 81.875 15.6328C81.2812 15.987 80.5677 16.1641 79.7344 16.1641ZM79.7344 14.7422C80.2188 14.7422 80.6302 14.625 80.9688 14.3906C81.3073 14.151 81.5651 13.8099 81.7422 13.3672C81.9193 12.9245 82.0078 12.3906 82.0078 11.7656V11.75C82.0078 11.1198 81.9193 10.5833 81.7422 10.1406C81.5651 9.69792 81.3073 9.35938 80.9688 9.125C80.6302 8.88542 80.2188 8.76562 79.7344 8.76562C79.25 8.76562 78.8385 8.88542 78.5 9.125C78.1615 9.35938 77.901 9.69792 77.7188 10.1406C77.5417 10.5833 77.4531 11.1198 77.4531 11.75V11.7656C77.4531 12.3906 77.5417 12.9245 77.7188 13.3672C77.901 13.8099 78.1615 14.151 78.5 14.3906C78.8385 14.625 79.25 14.7422 79.7344 14.7422ZM85.7656 16V7.51562H87.4609V8.79688H87.5938C87.7448 8.34375 88.0104 7.99219 88.3906 7.74219C88.776 7.49219 89.25 7.36719 89.8125 7.36719C89.9531 7.36719 90.0911 7.375 90.2266 7.39062C90.362 7.40625 90.4714 7.42448 90.5547 7.44531V9.00781C90.4036 8.97656 90.2526 8.95312 90.1016 8.9375C89.9557 8.92188 89.8021 8.91406 89.6406 8.91406C89.2083 8.91406 88.8281 8.9974 88.5 9.16406C88.1771 9.33073 87.9219 9.5651 87.7344 9.86719C87.5521 10.1641 87.4609 10.5182 87.4609 10.9297V16H85.7656ZM97.375 18.9844C97.2708 18.9844 97.1589 18.9792 97.0391 18.9688C96.9193 18.9635 96.8047 18.9557 96.6953 18.9453V17.6094C96.7786 17.6198 96.8698 17.6276 96.9688 17.6328C97.0729 17.638 97.1719 17.6406 97.2656 17.6406C97.6615 17.6406 97.9818 17.5469 98.2266 17.3594C98.4714 17.1771 98.6562 16.8724 98.7812 16.4453L98.9062 16.0078L95.8281 7.51562H97.6641L100.062 15.1641L99.5312 14.2891H100.18L99.6562 15.1641L102.047 7.51562H103.836L100.68 16.3203C100.44 16.9974 100.174 17.5286 99.8828 17.9141C99.5911 18.3047 99.2448 18.5807 98.8438 18.7422C98.4427 18.9036 97.9531 18.9844 97.375 18.9844ZM108.828 16.1641C108 16.1641 107.284 15.987 106.68 15.6328C106.081 15.2786 105.62 14.7734 105.297 14.1172C104.974 13.4557 104.812 12.6719 104.812 11.7656V11.75C104.812 10.8385 104.974 10.0547 105.297 9.39844C105.625 8.74219 106.089 8.23698 106.688 7.88281C107.292 7.52865 108.005 7.35156 108.828 7.35156C109.656 7.35156 110.37 7.52865 110.969 7.88281C111.568 8.23177 112.029 8.73698 112.352 9.39844C112.68 10.0547 112.844 10.8385 112.844 11.75V11.7656C112.844 12.6719 112.68 13.4557 112.352 14.1172C112.029 14.7734 111.568 15.2786 110.969 15.6328C110.375 15.987 109.661 16.1641 108.828 16.1641ZM108.828 14.7422C109.312 14.7422 109.724 14.625 110.062 14.3906C110.401 14.151 110.659 13.8099 110.836 13.3672C111.013 12.9245 111.102 12.3906 111.102 11.7656V11.75C111.102 11.1198 111.013 10.5833 110.836 10.1406C110.659 9.69792 110.401 9.35938 110.062 9.125C109.724 8.88542 109.312 8.76562 108.828 8.76562C108.344 8.76562 107.932 8.88542 107.594 9.125C107.255 9.35938 106.995 9.69792 106.812 10.1406C106.635 10.5833 106.547 11.1198 106.547 11.75V11.7656C106.547 12.3906 106.635 12.9245 106.812 13.3672C106.995 13.8099 107.255 14.151 107.594 14.3906C107.932 14.625 108.344 14.7422 108.828 14.7422ZM117.688 16.1641C117.052 16.1641 116.516 16.0417 116.078 15.7969C115.646 15.5469 115.32 15.1875 115.102 14.7188C114.888 14.2448 114.781 13.6745 114.781 13.0078V7.51562H116.477V12.6094C116.477 13.3073 116.615 13.8307 116.891 14.1797C117.167 14.5286 117.617 14.7031 118.242 14.7031C118.576 14.7031 118.872 14.6536 119.133 14.5547C119.393 14.4505 119.612 14.3021 119.789 14.1094C119.966 13.9167 120.096 13.6849 120.18 13.4141C120.268 13.1432 120.312 12.8359 120.312 12.4922V7.51562H122.016V16H120.312V14.7188H120.188C120.052 15.0208 119.867 15.2812 119.633 15.5C119.398 15.7135 119.117 15.8776 118.789 15.9922C118.466 16.1068 118.099 16.1641 117.688 16.1641Z" fill="black"/>
</svg>
