<svg width="20" height="19" viewBox="0 0 20 19" fill="none" xmlns="http://www.w3.org/2000/svg">
<path d="M9.48888 1.33939C9.53045 1.23901 9.60125 1.15314 9.69226 1.09271C9.78328 1.03227 9.8904 1 10 1C10.1096 1 10.2167 1.03227 10.3077 1.09271C10.3987 1.15314 10.4695 1.23901 10.5111 1.33939L12.5998 6.31218C12.6389 6.40523 12.7032 6.4858 12.7856 6.54502C12.8679 6.60424 12.9652 6.63983 13.0667 6.64785L18.4904 7.0779C18.9809 7.11682 19.1795 7.72297 18.806 8.03918L14.6738 11.5438C14.5966 11.6091 14.539 11.6943 14.5075 11.7899C14.4759 11.8855 14.4716 11.9878 14.4949 12.0857L15.7579 17.3251C15.7833 17.4302 15.7767 17.5404 15.7388 17.6418C15.701 17.7432 15.6336 17.8312 15.5453 17.8947C15.4569 17.9582 15.3515 17.9943 15.2424 17.9986C15.1333 18.0029 15.0254 17.975 14.9323 17.9186L10.288 15.1116C10.2013 15.0592 10.1016 15.0314 10 15.0314C9.89837 15.0314 9.79872 15.0592 9.712 15.1116L5.06772 17.9196C4.97459 17.976 4.86667 18.0038 4.75757 17.9996C4.64847 17.9953 4.54309 17.9592 4.45474 17.8956C4.36639 17.8321 4.29904 17.7441 4.26119 17.6428C4.22334 17.5414 4.21668 17.4312 4.24207 17.3261L5.50512 12.0857C5.52854 11.9878 5.52423 11.8855 5.49267 11.7898C5.46111 11.6942 5.40352 11.6091 5.32623 11.5438L1.19404 8.03918C1.11083 7.96897 1.05054 7.87589 1.02081 7.77173C0.991082 7.66757 0.993247 7.55703 1.02703 7.45409C1.06082 7.35115 1.12471 7.26046 1.2106 7.19349C1.2965 7.12652 1.40055 7.08629 1.50956 7.0779L6.93329 6.64785C7.03478 6.63983 7.13206 6.60424 7.21444 6.54502C7.29681 6.4858 7.36108 6.40523 7.40018 6.31218L9.48888 1.33939Z" stroke="black" stroke-width="1.5" stroke-linecap="round" stroke-linejoin="round"/>
</svg>
