<svg width="25" height="24" viewBox="0 0 25 24" fill="none" xmlns="http://www.w3.org/2000/svg">
<path fill-rule="evenodd" clip-rule="evenodd" d="M0.5 8.85339C0.5 9.81007 0.868711 10.7324 1.53414 11.4403L7.61636 17.9107C10.235 20.6964 14.765 20.6964 17.3836 17.9107L23.4658 11.4403C24.1313 10.7324 24.5 9.81007 24.5 8.85339C24.5 5.47452 20.3176 3.73804 17.7846 6.06523L15.9763 7.72658C14.0283 9.51634 10.9717 9.51634 9.02366 7.72658L7.21538 6.06523C4.6824 3.73804 0.5 5.47453 0.5 8.85339ZM16.7 14.4021C16.7 16.6454 14.8196 18.4639 12.5 18.4639C10.1804 18.4639 8.3 16.6454 8.3 14.4021C8.3 12.1588 10.1804 10.3402 12.5 10.3402C14.8196 10.3402 16.7 12.1588 16.7 14.4021Z" fill="#A6AEA6"/>
</svg>
